<svg width="33" height="32" viewBox="0 0 33 32" fill="none" xmlns="http://www.w3.org/2000/svg">
<rect width="32" height="32" transform="translate(0.5)" fill="white"/>
<path d="M30.5 11.0022C30.5 9.34636 29.1687 8 27.5314 8H5.46856C3.83129 8 2.5 9.34636 2.5 11.0022V24.9815C2.5 26.6374 3.83129 27.9837 5.46856 27.9837H23.6825L27.5314 28C29.1687 28 30.5 26.6536 30.5 24.9978V19.2866V11.0022ZM3.91719 13.4072H24.987C25.3788 13.4072 25.6955 13.0869 25.6955 12.6906C25.6955 12.2942 25.3788 11.9739 24.987 11.9739H3.91719V10.9967C3.91719 10.1336 4.61503 9.4278 5.46856 9.4278H27.5314C28.385 9.4278 29.0828 10.1336 29.0828 10.9967V15.519H3.91181V13.4072H3.91719ZM29.0882 24.9924C29.0882 25.8556 28.3903 26.5613 27.5368 26.5613L23.543 26.5451H5.47393C4.6204 26.5451 3.92254 25.8393 3.92254 24.9761V16.9522H29.0936V18.8795V24.9924H29.0882Z" fill="#060F26"/>
<path d="M13.8698 19.9109H6.71411C6.32224 19.9109 6.00552 20.2312 6.00552 20.6275C6.00552 21.0239 6.32224 21.3442 6.71411 21.3442H13.8698C14.2616 21.3442 14.5784 21.0239 14.5784 20.6275C14.5784 20.2312 14.2616 19.9109 13.8698 19.9109Z" fill="#060F26"/>
<path d="M9.49976 22.5222H6.70834C6.31647 22.5222 5.99975 22.8426 5.99975 23.2389C5.99975 23.6352 6.31647 23.9555 6.70834 23.9555H9.49976C9.89163 23.9555 10.2084 23.6352 10.2084 23.2389C10.2084 22.8426 9.89163 22.5222 9.49976 22.5222Z" fill="#060F26"/>
<path d="M27.4133 11.9794H27.0537C26.6618 11.9794 26.3451 12.2997 26.3451 12.696C26.3451 13.0923 26.6618 13.4126 27.0537 13.4126H27.4133C27.8052 13.4126 28.1219 13.0923 28.1219 12.696C28.1219 12.2997 27.8052 11.9794 27.4133 11.9794Z" fill="#060F26"/>
<path d="M12.3449 22.5222H11.9852C11.5934 22.5222 11.2766 22.8426 11.2766 23.2389C11.2766 23.6352 11.5934 23.9555 11.9852 23.9555H12.3449C12.7367 23.9555 13.0535 23.6352 13.0535 23.2389C13.0535 22.8426 12.7367 22.5222 12.3449 22.5222Z" fill="#060F26"/>
<path d="M23.9722 19.417C23.4837 19.417 23.022 19.569 22.6355 19.8404C22.2544 19.5744 21.7981 19.417 21.2989 19.417C19.9998 19.417 18.9477 20.481 18.9477 21.7948C18.9477 23.1086 19.9998 24.1727 21.2989 24.1727C21.7981 24.1727 22.2598 24.0152 22.6355 23.7438C23.0274 24.0207 23.4891 24.1727 23.9722 24.1727C25.2713 24.1727 26.3234 23.1086 26.3234 21.7948C26.3234 20.481 25.2713 19.417 23.9722 19.417ZM19.8065 21.7948C19.8065 20.9642 20.4776 20.2856 21.2989 20.2856C22.1202 20.2856 22.7912 20.9642 22.7912 21.7948C22.7912 22.6254 22.1202 23.304 21.2989 23.304C20.4776 23.304 19.8065 22.6254 19.8065 21.7948ZM23.9722 23.304C23.7145 23.304 23.473 23.2335 23.2529 23.1086C23.4998 22.734 23.6501 22.278 23.6501 21.7948C23.6501 21.3062 23.5052 20.8556 23.2529 20.481C23.473 20.3562 23.7145 20.2856 23.9722 20.2856C24.7935 20.2856 25.4645 20.9642 25.4645 21.7948C25.4645 22.6254 24.7935 23.304 23.9722 23.304Z" fill="#060F26"/>
</svg>
