<svg width="32" height="32" viewBox="0 0 32 32" fill="none" xmlns="http://www.w3.org/2000/svg">
<path d="M29.8505 16.6324L28.3823 14.7879C28.1387 14.4838 27.7139 14.4442 27.4265 14.702L25.6835 16.2556C25.3961 16.5134 25.3587 16.963 25.6023 17.2671C25.8459 17.5712 26.2708 17.6109 26.5581 17.353L27.0142 16.9498C26.5706 23.4947 21.4416 28.5654 15.2005 28.5654C14.7695 28.5654 14.3384 28.539 13.9074 28.4927C13.5388 28.4464 13.2014 28.7373 13.1577 29.1273C13.1202 29.524 13.3888 29.8744 13.7574 29.9207C14.2322 29.9736 14.7133 30 15.1943 30C18.7178 30 22.0351 28.5456 24.5278 25.9078C26.7893 23.5146 28.1449 20.3611 28.3636 17.0027L28.8009 17.5514C29.0321 17.8423 29.4819 17.8819 29.7568 17.6373C29.8942 17.5117 29.9817 17.3398 29.9941 17.1481C30.0191 16.963 29.9629 16.7779 29.8505 16.6324Z" fill="#060F26"/>
<path d="M8.13465 5.63822L10.2775 6.458C10.6211 6.59022 11.0209 6.38527 11.1458 6.02828C11.2083 5.84978 11.2021 5.65145 11.1209 5.47956C11.0459 5.30767 10.9085 5.17545 10.7398 5.10934L9.94012 4.80523C11.5644 3.9524 13.3761 3.50285 15.2003 3.50285C19.8858 3.50285 24.1402 6.43155 26.0394 10.9734C26.1456 11.2312 26.3893 11.4031 26.6579 11.4031C26.7516 11.4031 26.8453 11.3832 26.9328 11.3436C27.1014 11.2642 27.2264 11.1254 27.2889 10.9469C27.3513 10.7684 27.3513 10.5701 27.2764 10.3982C25.1648 5.34073 20.4231 2.07486 15.2003 2.07486C13.2824 2.07486 11.3645 2.52441 9.634 3.37724L9.77769 2.96074C9.84016 2.78224 9.83391 2.58391 9.7527 2.41203C9.67773 2.24014 9.54029 2.10792 9.37161 2.04181C9.02177 1.90958 8.62819 2.10131 8.50324 2.47153L7.72858 4.73251C7.60363 5.08951 7.7848 5.506 8.13465 5.63822Z" fill="#060F26"/>
<path d="M9.37806 25.2533C9.30934 24.8632 8.95949 24.6054 8.5909 24.6715C8.2223 24.7442 7.97866 25.1144 8.04113 25.5045L8.14109 26.0995C5.13614 23.7327 3.35566 19.9975 3.35566 16.0374C3.35566 13.3533 4.14907 10.7882 5.64217 8.63304C5.86083 8.31571 5.79836 7.86615 5.49849 7.62816C5.19862 7.39677 4.7738 7.46288 4.54889 7.78021C2.88087 10.1866 2 13.0426 2 16.0374C2 18.5364 2.63098 20.9891 3.82421 23.1245C4.73632 24.764 5.98577 26.2119 7.4414 27.3357L6.74794 27.468C6.37935 27.5407 6.13571 27.9109 6.19818 28.301C6.25441 28.6447 6.53554 28.896 6.86664 28.896C6.90413 28.896 6.94786 28.8893 6.98534 28.8827L9.22812 28.4596C9.59671 28.3869 9.84036 28.0167 9.77788 27.6266L9.37806 25.2533Z" fill="#060F26"/>
<path d="M15.288 24.7377C19.8423 24.7377 23.5532 20.8173 23.5532 15.9912C23.5532 11.1652 19.8486 7.2448 15.288 7.2448C10.7337 7.2448 7.02286 11.1652 7.02286 15.9912C7.02286 20.8173 10.7337 24.7377 15.288 24.7377ZM8.38477 15.9912C8.38477 11.9651 11.4834 8.68601 15.288 8.68601C19.0926 8.68601 22.1913 11.9651 22.1913 15.9912C22.1913 20.0174 19.0926 23.2965 15.288 23.2965C11.4834 23.2965 8.38477 20.024 8.38477 15.9912Z" fill="#060F26"/>
<path d="M11.2085 12.9434C11.4022 12.9434 11.5896 12.8509 11.7208 12.6988C11.8395 12.5534 11.8957 12.3683 11.8832 12.1766C11.8707 11.9848 11.7895 11.813 11.6521 11.6873C11.3772 11.4361 10.9274 11.4692 10.6962 11.7535C10.5775 11.8989 10.5151 12.084 10.5276 12.2757C10.5401 12.4674 10.6213 12.6393 10.7587 12.7649C10.8837 12.8773 11.0398 12.9434 11.2085 12.9434Z" fill="#060F26"/>
<path d="M11.2273 20.4999C11.3897 20.4999 11.5521 20.4338 11.6771 20.3214C11.8145 20.1958 11.8957 20.0173 11.902 19.8256C11.9145 19.6339 11.852 19.4487 11.7333 19.3033C10.9711 18.3844 10.5463 17.2076 10.5463 15.9846C10.5463 15.4491 10.6275 14.9202 10.7837 14.4177C10.9024 14.0409 10.7087 13.6376 10.3526 13.512C9.99654 13.393 9.60921 13.6046 9.49676 13.9682C9.29684 14.6161 9.19064 15.2904 9.19689 15.9779C9.19689 17.5514 9.7404 19.0653 10.7212 20.2421C10.8462 20.414 11.0336 20.4999 11.2273 20.4999Z" fill="#060F26"/>
<path d="M16.0816 19.5546V21.1082H14.8009V19.5414C13.8951 19.4091 13.0205 19.0125 12.377 18.4505L13.0579 16.9961C13.7514 17.6308 14.7947 18.0737 15.5006 18.0737C16.0192 18.0737 16.344 17.8688 16.344 17.4919C16.344 16.2821 12.7956 17.0093 12.7956 14.4905C12.7956 13.36 13.564 12.5799 14.7947 12.3684V10.8743H16.0754V12.3617C16.8625 12.4543 17.6122 12.7386 18.1807 13.1286L17.5185 14.6029C16.8063 14.1732 15.9067 13.836 15.3444 13.836C14.9196 13.836 14.6448 14.0013 14.6448 14.3252C14.6448 15.5086 18.1932 14.8343 18.1932 17.3994C18.1995 18.6489 17.2936 19.3827 16.0816 19.5546Z" fill="#060F26"/>
</svg>
