<svg width="24" height="28" viewBox="0 0 24 28" fill="none" xmlns="http://www.w3.org/2000/svg">
<path d="M5.44631 11.5743C5.03965 11.5743 4.70631 11.8821 4.70631 12.2577V12.27C4.70631 12.6455 5.03965 12.9534 5.44631 12.9534C5.85297 12.9534 6.18628 12.6455 6.18628 12.27V12.2577C6.18628 11.8821 5.85297 11.5743 5.44631 11.5743Z" fill="#060F26"/>
<path d="M11.9993 5.52856C9.06605 5.52856 6.4261 7.14158 5.27945 9.63499C5.11946 9.97975 5.29278 10.3861 5.67278 10.5277C5.76611 10.5646 5.85944 10.5831 5.95944 10.5831C6.25943 10.5831 6.52611 10.4169 6.63944 10.1645C7.55276 8.17588 9.65272 6.88916 11.9927 6.88916C12.3993 6.88916 12.7327 6.58134 12.7327 6.20579C12.7393 5.83639 12.4127 5.52856 11.9993 5.52856Z" fill="#060F26"/>
<path d="M23.0796 20.4705C22.4863 19.9657 22.1397 19.2515 22.1397 18.5128V12.27C22.1397 10.1275 21.333 8.02814 19.8664 6.36588C18.4064 4.70976 16.3664 3.55849 14.1131 3.12137C14.2731 2.82586 14.3531 2.4934 14.3531 2.16711C14.3531 0.972736 13.2998 0 12.0065 0C10.7132 0 9.65986 0.972736 9.65986 2.16711C9.65986 2.49956 9.74652 2.82586 9.89985 3.12137C7.64655 3.56464 5.60658 4.71592 4.1466 6.36588C2.67996 8.02814 1.8733 10.1275 1.8733 12.27V18.5128C1.8733 19.2515 1.53333 19.9657 0.933335 20.4705C0.340011 20.9692 0 21.6834 0 22.4283C0 23.8874 1.28664 25.0818 2.87329 25.0818H8.15321C8.32654 25.8883 8.80653 26.6271 9.50652 27.1627C10.2132 27.7045 11.0998 28 11.9998 28C12.8998 28 13.7865 27.7045 14.4931 27.1627C15.1931 26.6271 15.6731 25.8883 15.8464 25.0818H21.1263C22.7063 25.0818 23.9996 23.8936 23.9996 22.4283C24.013 21.6834 23.673 20.9754 23.0796 20.4705ZM11.9998 1.40985C12.4531 1.40985 12.8131 1.74846 12.8131 2.16095C12.8131 2.57344 12.4465 2.91205 11.9998 2.91205C11.5532 2.91205 11.1865 2.57344 11.1865 2.16095C11.1865 1.74846 11.5532 1.40985 11.9998 1.40985ZM3.40662 18.5128V12.27C3.40662 7.9358 7.25323 4.40193 12.0065 4.34037C16.7597 4.40193 20.513 7.72647 20.6063 12.27V18.5128C20.6063 18.6975 20.6197 18.8883 20.653 19.0792H12.0065H3.35995C3.38662 18.8883 3.40662 18.6975 3.40662 18.5128ZM11.9998 26.584C10.9665 26.584 10.0532 25.9807 9.72651 25.0756H14.2665C13.9465 25.9807 13.0398 26.584 11.9998 26.584ZM21.133 23.6658H2.87329C2.1333 23.6658 1.53332 23.1117 1.53332 22.4283C1.53332 22.0836 1.69332 21.7449 1.97332 21.511C2.35331 21.1847 2.67329 20.8091 2.91328 20.3782H21.1063C21.3463 20.8091 21.6663 21.1847 22.0463 21.511C22.3263 21.7449 22.4796 22.0774 22.4796 22.4283C22.473 23.1117 21.873 23.6658 21.133 23.6658Z" fill="#060F26"/>
</svg>
