<svg width="33" height="32" viewBox="0 0 33 32" fill="none" xmlns="http://www.w3.org/2000/svg">
<path d="M23.6412 10.712H16.371C16.095 10.712 15.8705 10.4824 15.8705 10.2004V3.51081C15.8705 3.3075 15.986 3.12386 16.1656 3.04516C16.3453 2.9599 16.5571 2.99925 16.7047 3.13042L23.9749 9.82002C24.1289 9.96431 24.1803 10.1873 24.1097 10.384C24.0391 10.5808 23.8466 10.712 23.6412 10.712ZM16.8715 9.68886H22.3386L16.8715 4.65198V9.68886Z" fill="#060F26" stroke="#060F26" stroke-width="0.2" stroke-miterlimit="10"/>
<path d="M21.2544 28H7.394C5.80262 28 4.5 26.708 4.5 25.1209V5.89153C4.5 4.30439 5.79621 3.01237 7.394 3.01237H16.3711C16.6471 3.01237 16.8717 3.24192 16.8717 3.52393V9.69542H23.6478C23.9238 9.69542 24.1484 9.92496 24.1484 10.207V15.3881H23.1473V10.7185H16.3711C16.0952 10.7185 15.8706 10.489 15.8706 10.207V4.03549H7.38758C6.34163 4.03549 5.49461 4.86841 5.49461 5.89153V25.1274C5.49461 26.1505 6.34163 26.9834 7.38758 26.9834H21.2479C22.1399 26.9834 22.9227 26.3538 23.1024 25.4947L24.0778 25.7046C23.8083 27.0359 22.6147 28 21.2544 28Z" fill="#060F26" stroke="#060F26" stroke-width="0.2" stroke-miterlimit="10"/>
<path d="M23.8595 26.0653C20.7474 26.0653 18.2191 23.5534 18.2191 20.4578C18.2191 17.3622 20.7474 14.8503 23.8595 14.8503C26.9717 14.8503 29.4999 17.3622 29.4999 20.4578C29.4999 23.5534 26.9717 26.0653 23.8595 26.0653ZM23.8595 15.8735C21.2992 15.8735 19.2137 17.9328 19.2137 20.4578C19.2137 22.9828 21.2992 25.0421 23.8595 25.0421C26.4198 25.0421 28.5053 22.9828 28.5053 20.4578C28.5053 17.9328 26.4198 15.8735 23.8595 15.8735Z" fill="#060F26" stroke="#060F26" stroke-width="0.2" stroke-miterlimit="10"/>
<path d="M23.5776 21.0088V18.2017C23.5776 18.0115 23.6866 17.8541 23.8278 17.8541C23.969 17.8541 24.0781 18.0115 24.0781 18.2017V21.0088C24.0781 21.1989 23.969 21.3563 23.8278 21.3563C23.6866 21.3563 23.5776 21.1989 23.5776 21.0088Z" fill="#060F26" stroke="#060F26" stroke-width="0.2" stroke-miterlimit="10"/>
<path d="M23.6672 21.0153C23.6672 20.8251 23.7763 20.6677 23.9174 20.6677H25.9516C26.0927 20.6677 26.2018 20.8251 26.2018 21.0153C26.2018 21.2055 26.0927 21.3629 25.9516 21.3629H23.9174C23.7763 21.3564 23.6672 21.2055 23.6672 21.0153Z" fill="#060F26" stroke="#060F26" stroke-width="0.2" stroke-miterlimit="10"/>
<path d="M13.5993 8.52803H8.92143C8.6455 8.52803 8.42091 8.29848 8.42091 8.01647C8.42091 7.73446 8.6455 7.50491 8.92143 7.50491H13.5993C13.8752 7.50491 14.0998 7.73446 14.0998 8.01647C14.0998 8.29848 13.8752 8.52803 13.5993 8.52803Z" fill="#060F26" stroke="#060F26" stroke-width="0.2" stroke-miterlimit="10"/>
<path d="M13.5993 11.5056H8.92143C8.6455 11.5056 8.42091 11.276 8.42091 10.994C8.42091 10.712 8.6455 10.4825 8.92143 10.4825H13.5993C13.8752 10.4825 14.0998 10.712 14.0998 10.994C14.0998 11.276 13.8752 11.5056 13.5993 11.5056Z" fill="#060F26" stroke="#060F26" stroke-width="0.2" stroke-miterlimit="10"/>
<path d="M16.6409 17.4605H8.92143C8.6455 17.4605 8.42091 17.231 8.42091 16.949C8.42091 16.667 8.6455 16.4374 8.92143 16.4374H16.6409C16.9168 16.4374 17.1414 16.667 17.1414 16.949C17.1414 17.231 16.9168 17.4605 16.6409 17.4605Z" fill="#060F26" stroke="#060F26" stroke-width="0.2" stroke-miterlimit="10"/>
<path d="M16.1591 20.4381H8.91453C8.63861 20.4381 8.41402 20.2085 8.41402 19.9265C8.41402 19.6445 8.63861 19.415 8.91453 19.415H16.1591C16.4351 19.415 16.6596 19.6445 16.6596 19.9265C16.6596 20.2085 16.4351 20.4381 16.1591 20.4381Z" fill="#060F26" stroke="#060F26" stroke-width="0.2" stroke-miterlimit="10"/>
<path d="M16.6409 23.4156H8.92143C8.6455 23.4156 8.42091 23.1861 8.42091 22.9041C8.42091 22.6221 8.6455 22.3925 8.92143 22.3925H16.6409C16.9168 22.3925 17.1414 22.6221 17.1414 22.9041C17.1414 23.1861 16.9168 23.4156 16.6409 23.4156Z" fill="#060F26" stroke="#060F26" stroke-width="0.2" stroke-miterlimit="10"/>
<path d="M8.73486 14.0305H14.7282" stroke="#060F26" stroke-miterlimit="10" stroke-linecap="round"/>
<path d="M17.4045 14.0305H17.6227" stroke="#060F26" stroke-width="1.2" stroke-miterlimit="10" stroke-linecap="round"/>
</svg>
