<svg width="20" height="25" viewBox="0 0 20 25" fill="none" xmlns="http://www.w3.org/2000/svg">
<g clip-path="url(#clip0_5_298)">
<path d="M19.9489 19.3208C19.9132 18.1431 19.7232 16.9759 19.384 15.8509C19.0876 14.8109 18.5546 13.8592 17.8294 13.0749C17.142 12.3633 16.2561 11.8916 15.2958 11.7258L14.8978 11.6759H14.731C14.2314 11.6102 13.7259 11.7367 13.3109 12.0312L13.0419 12.2088C12.7191 12.4309 12.4018 12.6419 12.0737 12.8307C11.5207 13.1566 10.906 13.3555 10.2717 13.4136C9.73787 13.4536 9.20173 13.3819 8.69551 13.2026C8.14526 13.0019 7.62546 12.7215 7.15167 12.3698C6.95802 12.2366 6.759 12.1145 6.55997 11.9923L6.45234 11.9257C6.12838 11.7263 5.7526 11.6352 5.37649 11.6648C4.23635 11.6852 3.14099 12.1264 2.28882 12.9084C1.76252 13.4202 1.33537 14.0306 1.0301 14.7072C0.620386 15.5975 0.342917 16.5464 0.207058 17.522C0.042113 18.5323 -0.0245597 19.5571 0.00802872 20.5811C0.0156269 21.6066 0.372923 22.5965 1.01723 23.3772C1.66153 24.158 2.5517 24.6795 3.53145 24.8504C3.68207 24.8837 3.83806 24.9059 3.99406 24.9281L4.25225 24.9614H15.7047C16.4114 24.9283 17.1029 24.7389 17.7326 24.4063C18.3393 24.0823 18.8589 23.6087 19.2456 23.0276C19.6322 22.4465 19.8738 21.7758 19.9489 21.0751C20.003 20.4917 20.003 19.9042 19.9489 19.3208ZM5.84448 13.2137C6.01662 13.3192 6.18876 13.4247 6.38241 13.5413C6.96918 13.9701 7.61222 14.3103 8.29206 14.5517C8.98367 14.7935 9.71604 14.8862 10.4438 14.8238C11.2796 14.7471 12.0901 14.4878 12.8214 14.0632C13.1818 13.8467 13.5422 13.6079 13.8596 13.3914L14.1285 13.2137C14.2666 13.11 14.4252 13.0861 14.6073 13.0861H14.8386L15.086 13.1194C15.7573 13.2275 16.3774 13.5543 16.8558 14.0521C17.4263 14.6821 17.8431 15.4434 18.0715 16.2728C18.3613 17.2497 18.5276 18.2611 18.5664 19.2819C18.6101 19.8009 18.6101 20.3229 18.5664 20.842C18.5165 21.3101 18.3548 21.7581 18.0956 22.1457C17.8365 22.5334 17.4881 22.8485 17.0817 23.0627C16.648 23.2944 16.171 23.427 15.6831 23.4514H6.74284L4.17155 23.418L3.82727 23.3625C3.16874 23.2477 2.57052 22.897 2.13766 22.372C1.7048 21.8471 1.46504 21.1815 1.46046 20.4922C1.43059 19.5631 1.49003 18.6333 1.63795 17.7163C1.75259 16.8821 1.98646 16.0701 2.33189 15.3068C2.56684 14.7744 2.90136 14.2952 3.31627 13.8966C3.91065 13.3519 4.67327 13.0429 5.46796 13.025C5.6482 13.0469 5.57219 13.0469 5.84448 13.2137Z" fill="#060F26"/>
<path d="M15.2876 16.2059C15.5374 16.7624 15.7078 17.3533 15.7933 17.9602C15.8211 18.1314 15.9064 18.287 16.0343 18.3997C16.1622 18.5124 16.3244 18.575 16.4926 18.5765H16.6163C16.8025 18.5425 16.9684 18.435 17.0789 18.2767C17.1332 18.1968 17.1716 18.1066 17.1919 18.0113C17.2123 17.916 17.2141 17.8175 17.1973 17.7215C17.093 16.9726 16.8789 16.2443 16.5625 15.5618C16.3192 15.0147 15.9717 14.5238 15.5405 14.1184C15.4686 14.0498 15.3836 13.9976 15.2909 13.9651C15.1982 13.9326 15.1 13.9205 15.0026 13.9296C14.8147 13.9419 14.639 14.0296 14.513 14.1739C14.3889 14.3199 14.325 14.5103 14.335 14.7043C14.3451 14.8983 14.4283 15.0805 14.5668 15.2121C14.8693 15.4901 15.1144 15.828 15.2876 16.2059Z" fill="#060F26"/>
<path d="M10.0807 11.6367H10.1936C11.6704 11.6108 13.0794 10.9924 14.1217 9.91239C15.1641 8.83243 15.7579 7.37589 15.7773 5.85165C15.7853 4.32268 15.2049 2.85298 14.1635 1.76549C13.6417 1.21402 13.0184 0.775708 12.3302 0.476339C11.642 0.176971 10.9028 0.0225763 10.156 0.0222015C8.66176 0.0380466 7.23285 0.656975 6.17521 1.74648C5.11757 2.83599 4.51522 4.3095 4.49702 5.85165C4.49158 7.37846 5.07174 8.84545 6.11079 9.93225C6.62798 10.4766 7.24593 10.908 7.92793 11.2008C8.60992 11.4936 9.34204 11.6418 10.0807 11.6367ZM5.92253 5.85165C5.93645 4.70267 6.38446 3.60472 7.17121 2.79169C7.95796 1.97866 9.02122 1.51481 10.1345 1.49898C10.6912 1.49996 11.2422 1.61591 11.7549 1.83997C12.2676 2.06404 12.7318 2.39171 13.12 2.80369C13.9024 3.61604 14.3464 4.71178 14.3571 5.85721C14.3461 6.99697 13.9052 8.08741 13.1278 8.897C12.3504 9.7066 11.2978 10.1716 10.1936 10.1932H10.0807C9.53421 10.1916 8.9936 10.0767 8.49093 9.85546C7.98827 9.63421 7.53376 9.31106 7.15433 8.90517C6.36893 8.0953 5.9261 6.9975 5.92253 5.85165Z" fill="#060F26"/>
<path d="M16.6432 20.8639C17.0383 20.8639 17.3586 20.5333 17.3586 20.1255C17.3586 19.7177 17.0383 19.3871 16.6432 19.3871C16.248 19.3871 15.9277 19.7177 15.9277 20.1255C15.9277 20.5333 16.248 20.8639 16.6432 20.8639Z" fill="#060F26"/>
</g>
<defs>
<clipPath id="clip0_5_298">
<rect width="20" height="25" fill="white"/>
</clipPath>
</defs>
</svg>
