<svg width="48" height="53" viewBox="0 0 48 53" fill="none" xmlns="http://www.w3.org/2000/svg">
<g clip-path="url(#clip0_48_206)">
<path d="M18.8603 20.3885V22.3401H20.8592V20.4013C22.6115 20.1189 23.6499 19.0789 23.6499 17.6024C23.6499 15.5995 21.8457 15.0859 20.5217 14.7264C19.678 14.4953 18.9511 14.2899 18.9511 13.8149C18.9511 13.4168 19.4314 13.3655 19.7299 13.3655C20.4049 13.3655 21.5601 13.7507 22.5206 14.2899L22.6634 14.3669L23.6758 12.2742L23.572 12.1971C22.8062 11.7092 21.8457 11.3754 20.8592 11.247V9.39819H18.8603V11.2727C17.1988 11.5808 16.2124 12.608 16.2124 14.0331C16.2124 15.9975 17.9257 16.4469 19.3016 16.8192C20.1583 17.0503 20.8981 17.2429 20.8981 17.7436C20.8981 18.2572 20.2232 18.3086 19.9376 18.3086C19.016 18.3086 17.6791 17.7565 16.8094 17.0118L16.6537 16.8834L15.6023 18.9634L15.6932 19.0404C16.5498 19.7209 17.6921 20.2088 18.8603 20.3885Z" fill="#060F26"/>
<path d="M48.0008 26.5C48.0008 25.7682 47.3907 25.1647 46.6508 25.1647H39.3042V1.33527C39.3042 0.796027 38.9797 0.30814 38.4734 0.102713C37.9672 -0.102713 37.3961 0.0128392 37.0067 0.385174L34.2939 3.06856L31.5811 0.385174C31.0619 -0.128391 30.2052 -0.128391 29.673 0.385174L26.9602 3.06856L24.2474 0.385174C23.7412 -0.115552 22.8455 -0.115552 22.3393 0.385174L19.6265 3.06856L16.9137 0.385174C16.4075 -0.115552 15.5118 -0.115552 15.0056 0.385174L12.3317 3.0814L9.61893 0.398014C9.11271 -0.102713 8.21709 -0.102713 7.71087 0.398014L5.01103 3.0814L2.29821 0.398014C1.79199 -0.102713 0.909352 -0.102713 0.403132 0.385174C0.143532 0.641957 -0.0122274 1.00145 0.00075258 1.36095L0.0137326 47.3765C0.0137326 50.4835 2.57079 53 5.69897 53L42.3025 52.9872C43.8212 52.9872 45.249 52.3966 46.3263 51.3309C47.4037 50.2653 47.9878 48.853 47.9878 47.3508L48.0008 26.5ZM45.3139 47.3636C45.3139 48.9942 43.964 50.3295 42.3155 50.3295C41.5108 50.3295 40.7709 50.0213 40.1998 49.4564C39.6287 48.8915 39.3171 48.1468 39.3171 47.3636V27.8224H45.3139V47.3636ZM2.68761 4.5579L4.05051 5.90601C4.29713 6.14995 4.63461 6.27834 4.99805 6.27834C5.36149 6.27834 5.71195 6.13711 5.94559 5.90601L8.65841 3.22263L11.3842 5.90601C11.6178 6.13711 11.9683 6.27834 12.3317 6.27834C12.6952 6.27834 13.0456 6.13711 13.2793 5.90601L15.9921 3.22263L18.7049 5.90601C18.9515 6.14995 19.289 6.27834 19.6525 6.27834C20.0159 6.27834 20.3664 6.13711 20.6 5.90601L23.3128 3.22263L26.0256 5.90601C26.2723 6.14995 26.6097 6.27834 26.9732 6.27834C27.3366 6.27834 27.6871 6.13711 27.9207 5.90601L30.6335 3.20979L33.3463 5.89317C33.593 6.13711 33.9304 6.2655 34.2939 6.2655C34.6573 6.2655 35.0078 6.12427 35.2414 5.89317L36.6043 4.54506L36.6173 47.3636C36.6173 48.3009 36.838 49.1868 37.2793 50.0085L37.461 50.3295H5.69897C4.89421 50.3295 4.14137 50.0213 3.58323 49.4564C3.01211 48.8915 2.70059 48.1468 2.70059 47.3636L2.68761 4.5579Z" fill="#060F26"/>
<path d="M28.0238 18.9121H30.0357C30.3991 18.9121 30.7366 18.7709 30.9832 18.5269C31.2428 18.2701 31.3726 17.9363 31.3726 17.5897C31.3726 16.8578 30.7626 16.2544 30.0227 16.2544H28.0108C27.2709 16.2544 26.6609 16.8578 26.6609 17.5897C26.6609 17.9492 26.8037 18.283 27.0503 18.5269C27.3358 18.7837 27.6733 18.9121 28.0238 18.9121Z" fill="#060F26"/>
<path d="M9.26793 18.925H11.2798C11.6433 18.925 11.9807 18.7838 12.2274 18.5399C12.487 18.2831 12.6168 17.9493 12.6168 17.6026C12.6168 16.8708 12.0067 16.2673 11.2668 16.2673H9.25495C8.51509 16.2673 7.90503 16.8708 7.90503 17.6026C7.90503 17.9621 8.04781 18.2959 8.29443 18.5399C8.56701 18.7838 8.90449 18.925 9.26793 18.925Z" fill="#060F26"/>
<path d="M14.1887 30.2875H30.5695C31.3094 30.2875 31.9194 29.684 31.9194 28.9522C31.9194 28.2204 31.3094 27.6169 30.5695 27.6169H14.1887C13.8253 27.6169 13.4878 27.7582 13.2412 28.0021C12.9816 28.2589 12.8518 28.5927 12.8518 28.9394C12.8518 29.2989 12.9946 29.6327 13.2412 29.8766C13.4878 30.1463 13.8253 30.2875 14.1887 30.2875Z" fill="#060F26"/>
<path d="M8.74929 30.2746C9.11273 30.2746 9.46319 30.1334 9.69683 29.9023C9.94345 29.6583 10.0862 29.3117 10.0862 28.965C10.0862 28.6184 9.94345 28.2717 9.69683 28.0278C9.45021 27.7838 9.09975 27.6426 8.74929 27.6426C8.39883 27.6426 8.04837 27.7838 7.80175 28.0278C7.55513 28.2717 7.41235 28.6184 7.41235 28.965C7.41235 29.3117 7.55513 29.6583 7.80175 29.9023C8.03539 30.1334 8.37287 30.2746 8.74929 30.2746Z" fill="#060F26"/>
<path d="M30.5686 34.3704H14.1878C13.448 34.3704 12.8379 34.9738 12.8379 35.7057C12.8379 36.0652 12.9807 36.399 13.2273 36.6429C13.4869 36.8997 13.8244 37.0281 14.1748 37.0281H30.5556C31.2954 37.0281 31.9055 36.4247 31.9055 35.6928C31.9055 35.3333 31.7627 34.9995 31.5161 34.7556C31.2695 34.5116 30.932 34.3704 30.5686 34.3704Z" fill="#060F26"/>
<path d="M8.74811 37.0282C9.09857 37.0282 9.44903 36.8998 9.69565 36.6558C9.94227 36.4119 10.0851 36.0652 10.0851 35.7186C10.0851 35.3719 9.94227 35.0253 9.69565 34.7813C9.18943 34.2806 8.29381 34.2806 7.78759 34.7813C7.54097 35.0253 7.39819 35.3719 7.39819 35.7186C7.39819 36.0652 7.54097 36.4119 7.78759 36.6558C8.04719 36.8998 8.39765 37.0282 8.74811 37.0282Z" fill="#060F26"/>
<path d="M30.5686 41.1238H14.1878C13.448 41.1238 12.8379 41.7273 12.8379 42.4591C12.8379 43.1909 13.448 43.7944 14.1878 43.7944H30.5686C31.3084 43.7944 31.9185 43.1909 31.9185 42.4591C31.9185 41.7273 31.3084 41.1238 30.5686 41.1238Z" fill="#060F26"/>
<path d="M7.78759 41.5218C7.54097 41.7657 7.39819 42.1124 7.39819 42.459C7.39819 42.8057 7.54097 43.1524 7.78759 43.3963C8.02123 43.6402 8.37169 43.7686 8.73513 43.7686C9.09857 43.7686 9.44903 43.6274 9.68267 43.3963C9.92929 43.1524 10.0721 42.8057 10.0721 42.459C10.0721 42.1124 9.92929 41.7657 9.68267 41.5218C9.18943 41.0211 8.29381 41.0211 7.78759 41.5218Z" fill="#060F26"/>
</g>
<defs>
<clipPath id="clip0_48_206">
<rect width="48" height="53" fill="white"/>
</clipPath>
</defs>
</svg>
