<svg width="112" height="112" viewBox="0 0 112 112" fill="none" xmlns="http://www.w3.org/2000/svg">
<g opacity="0.1" filter="url(#filter0_d_14_833)">
<ellipse cx="56" cy="52.9576" rx="31" ry="30.9576" fill="#192232"/>
</g>
<g filter="url(#filter1_d_14_833)">
<ellipse cx="55.9986" cy="52.9576" rx="19.289" ry="19.2627" fill="#F3F3F3"/>
</g>
<g clip-path="url(#clip0_14_833)">
<path d="M64.9586 56.1283C64.5678 56.0013 64.1335 56.1707 63.9598 56.5516L63.9164 56.6786C63.2216 58.414 61.8319 59.8532 60.0515 60.6997C58.1407 61.5886 55.9694 61.7579 53.9284 61.1653C51.3662 60.4034 49.3252 58.414 48.6304 55.959V55.8744L50.1503 56.5939C50.5411 56.7632 51.0188 56.6363 51.1925 56.2553C51.2794 56.086 51.3228 55.8744 51.2359 55.7051C51.1925 55.4934 51.0188 55.3664 50.8451 55.2818L47.5447 53.7157C47.2842 53.5887 47.0236 53.7157 46.8933 53.9273L45.2431 56.9326C45.1563 57.1442 45.1128 57.3135 45.1997 57.5251C45.2866 57.7368 45.4168 57.8638 45.5905 57.9484C45.9814 58.1177 46.4591 57.9907 46.6328 57.6098L47.1973 56.5516L47.2407 56.6786C47.6316 57.8214 48.1961 58.8796 49.0212 59.8108C50.1937 61.123 51.7136 62.0965 53.4507 62.6045C54.4061 62.9008 55.3614 63.0277 56.3602 63.0277C57.8802 63.0277 59.4001 62.6891 60.7463 62.0542C62.7439 61.0807 64.3072 59.5569 65.1323 57.6521C65.1758 57.6098 65.2192 57.5675 65.2626 57.4828L65.3929 57.1019C65.4798 56.9326 65.4363 56.7209 65.3495 56.5093C65.306 56.34 65.1323 56.213 64.9586 56.1283Z" fill="black" stroke="black" stroke-width="0.5"/>
<path d="M66.9993 49.0607C66.9125 48.849 66.7822 48.722 66.6085 48.6374C66.2177 48.4681 65.7834 48.5951 65.5663 48.976L64.9583 50.0765L64.9149 49.9495C64.524 48.8067 63.9595 47.7485 63.1344 46.8173C61.9619 45.5051 60.442 44.5739 58.7049 44.0237C56.273 43.3041 53.6675 43.4734 51.4093 44.5739C49.3683 45.5475 47.7615 47.1559 46.9364 49.0607L46.7193 49.5686C46.6324 49.7379 46.6758 49.9495 46.7627 50.1189C46.8496 50.2882 47.0233 50.4575 47.197 50.4998C47.5878 50.6268 48.0655 50.4152 48.1958 50.0342L48.2392 49.9072C48.934 48.1295 50.3237 46.6903 52.1041 45.8438C54.0149 44.9549 56.1862 44.7856 58.2272 45.3782C60.8328 46.1401 62.8304 48.1718 63.5252 50.6268V50.7114L61.9185 49.9495C61.5276 49.7802 61.0499 49.9072 60.8762 50.2882C60.7459 50.4998 60.7459 50.7961 60.9197 51.0077C61.0065 51.1347 61.0934 51.2617 61.2671 51.304L64.6109 52.8702L64.7412 52.9125C64.7846 52.9125 64.7846 52.9125 64.828 52.9125C65.132 52.9125 65.2623 52.7008 65.2623 52.6585L66.9125 49.5686C67.0428 49.4839 67.0428 49.2723 66.9993 49.0607Z" fill="black" stroke="black" stroke-width="0.5"/>
</g>
<defs>
<filter id="filter0_d_14_833" x="0" y="0" width="112" height="111.915" filterUnits="userSpaceOnUse" color-interpolation-filters="sRGB">
<feFlood flood-opacity="0" result="BackgroundImageFix"/>
<feColorMatrix in="SourceAlpha" type="matrix" values="0 0 0 0 0 0 0 0 0 0 0 0 0 0 0 0 0 0 127 0" result="hardAlpha"/>
<feOffset dy="3"/>
<feGaussianBlur stdDeviation="12.5"/>
<feColorMatrix type="matrix" values="0 0 0 0 0 0 0 0 0 0 0 0 0 0 0 0 0 0 0.15 0"/>
<feBlend mode="normal" in2="BackgroundImageFix" result="effect1_dropShadow_14_833"/>
<feBlend mode="normal" in="SourceGraphic" in2="effect1_dropShadow_14_833" result="shape"/>
</filter>
<filter id="filter1_d_14_833" x="11.7096" y="11.6949" width="88.578" height="88.5253" filterUnits="userSpaceOnUse" color-interpolation-filters="sRGB">
<feFlood flood-opacity="0" result="BackgroundImageFix"/>
<feColorMatrix in="SourceAlpha" type="matrix" values="0 0 0 0 0 0 0 0 0 0 0 0 0 0 0 0 0 0 127 0" result="hardAlpha"/>
<feOffset dy="3"/>
<feGaussianBlur stdDeviation="12.5"/>
<feColorMatrix type="matrix" values="0 0 0 0 0 0 0 0 0 0 0 0 0 0 0 0 0 0 0.15 0"/>
<feBlend mode="normal" in2="BackgroundImageFix" result="effect1_dropShadow_14_833"/>
<feBlend mode="normal" in="SourceGraphic" in2="effect1_dropShadow_14_833" result="shape"/>
</filter>
<clipPath id="clip0_14_833">
<rect width="21.8868" height="19.4284" fill="white" transform="translate(45.156 43.5994)"/>
</clipPath>
</defs>
</svg>
