<svg width="27" height="24" viewBox="0 0 27 24" fill="none" xmlns="http://www.w3.org/2000/svg">
<path d="M20.3198 23.2327C20.0775 23.2327 19.8353 23.1721 19.6112 23.0571L13.8272 20.0167C13.7848 19.9925 13.7303 19.9925 13.6879 20.0167L7.90396 23.0571C7.38916 23.3296 6.77745 23.2812 6.30505 22.942C5.83264 22.6028 5.60249 22.0335 5.6994 21.4582L6.80168 15.014C6.80774 14.9656 6.79562 14.9111 6.75928 14.8808L2.07762 10.3203C1.65972 9.91448 1.51436 9.31489 1.69606 8.76374C1.87775 8.2126 2.3441 7.81288 2.91947 7.73414L9.3878 6.79538C9.43625 6.78933 9.47865 6.75905 9.50288 6.71059L12.3979 0.847909C12.6523 0.320994 13.1731 0 13.7545 0C14.336 0 14.8568 0.320994 15.1172 0.847909L15.4443 1.50807C15.6139 1.84723 15.4746 2.25302 15.1354 2.4226C14.7962 2.59218 14.3905 2.45288 14.2209 2.11372L13.8938 1.45356C13.8393 1.33848 13.6758 1.33848 13.6213 1.45356L10.7263 7.31624C10.5083 7.76442 10.0782 8.0733 9.58161 8.14598L3.11933 9.07868C3.05877 9.09079 3.01637 9.12108 2.9982 9.18164C2.98003 9.24221 2.99215 9.29066 3.03454 9.33911L7.71621 13.8997C8.07354 14.2509 8.23707 14.7476 8.15228 15.2442L7.05 21.6883C7.03788 21.7489 7.06211 21.7973 7.11056 21.8397C7.15901 21.8761 7.21352 21.8821 7.26803 21.8518L13.052 18.8115C13.4941 18.5813 14.021 18.5813 14.4631 18.8115L20.2471 21.8518C20.3016 21.8821 20.3561 21.8761 20.4046 21.8397C20.453 21.8034 20.4772 21.7549 20.4651 21.6944L19.3628 15.2502C19.2781 14.7597 19.4416 14.257 19.7989 13.9057L24.4806 9.34517C24.523 9.30277 24.5411 9.24826 24.5169 9.1877C24.4927 9.12713 24.4564 9.09079 24.3958 9.08474L17.9275 8.13993C17.4308 8.06725 17.0069 7.75837 16.7828 7.31019L16.1045 5.97776C15.9349 5.63859 16.0681 5.23281 16.4073 5.05717C16.7464 4.88759 17.1522 5.02083 17.3279 5.35394L18.0122 6.69848C18.0365 6.75299 18.0789 6.78327 18.1273 6.78933L24.5957 7.72808C25.171 7.81288 25.6374 8.20655 25.8191 8.75769C26.0008 9.30883 25.8554 9.90842 25.4375 10.3142L20.7558 14.8747C20.7195 14.9111 20.7013 14.9595 20.7134 15.008L21.8157 21.4521C21.9126 22.0275 21.6825 22.5907 21.2101 22.9359C20.9436 23.1297 20.6287 23.2327 20.3198 23.2327Z" fill="#060F26"/>
<path d="M15.9055 4.57883C15.645 4.57883 15.3967 4.42742 15.2816 4.1791L15.1423 3.85811C14.9849 3.51289 15.1363 3.1071 15.4815 2.95569C15.8267 2.80428 16.2265 2.95569 16.3839 3.29486L16.5293 3.61585C16.6867 3.96107 16.5353 4.36685 16.1901 4.51827C16.0993 4.56066 16.0024 4.57883 15.9055 4.57883Z" fill="#060F26"/>
<path d="M20.4545 5.7537C20.2425 5.7537 20.0366 5.6568 19.8973 5.46905C19.6792 5.16622 19.7459 4.73621 20.0547 4.51818L23.1557 2.28333C23.4585 2.05924 23.8885 2.13192 24.1065 2.43474C24.3246 2.73757 24.2579 3.16758 23.9491 3.38561L20.8481 5.62046C20.7331 5.71131 20.5938 5.7537 20.4545 5.7537Z" fill="#060F26"/>
<path d="M7.06932 5.75357C6.93002 5.75357 6.79072 5.71118 6.66959 5.62639L3.56867 3.39154C3.26584 3.17351 3.19316 2.7435 3.4112 2.44067C3.63529 2.13179 4.05924 2.05911 4.36812 2.2832L7.46905 4.51805C7.77187 4.73608 7.84455 5.16609 7.62652 5.46892C7.48722 5.65667 7.2813 5.75357 7.06932 5.75357Z" fill="#060F26"/>
<path d="M26.3158 19.6957C26.1765 19.6957 26.0372 19.6533 25.9161 19.5685L22.8151 17.3336C22.5063 17.1156 22.4396 16.6856 22.6637 16.3828C22.8818 16.0739 23.3118 16.0073 23.6146 16.2313L26.7155 18.4662C27.0244 18.6842 27.091 19.1142 26.8669 19.4171C26.7337 19.5988 26.5278 19.6957 26.3158 19.6957Z" fill="#060F26"/>
<path d="M0.685315 20.0228C0.473338 20.0228 0.267417 19.9259 0.128118 19.7381C-0.0899162 19.4353 -0.0232948 19.0053 0.27953 18.7872L3.38045 16.5524C3.68328 16.3283 4.11329 16.401 4.33132 16.7038C4.54936 17.0066 4.48274 17.4366 4.17991 17.6547L1.07899 19.8895C0.963914 19.9804 0.824614 20.0228 0.685315 20.0228Z" fill="#060F26"/>
</svg>
