<svg width="54" height="55" viewBox="0 0 54 55" fill="none" xmlns="http://www.w3.org/2000/svg">
<path d="M39.1239 27.0285C39.1775 27.1261 39.2311 27.2326 39.2848 27.3303C39.4278 27.6322 39.7407 27.8275 40.0804 27.8275C40.2145 27.8275 40.3396 27.8008 40.4648 27.7387C40.6793 27.641 40.8402 27.4635 40.9207 27.2415C41.0012 27.0196 40.9833 26.7799 40.8849 26.5668C40.8224 26.4336 40.7598 26.3093 40.6883 26.1762C40.5721 25.972 40.3843 25.821 40.1608 25.7589C39.9374 25.6968 39.696 25.7145 39.4904 25.8299C39.2848 25.9453 39.1328 26.1318 39.0702 26.3537C38.9898 26.5846 39.0166 26.8243 39.1239 27.0285Z" fill="#060F26"/>
<path d="M41.601 28.9549C41.5384 28.4755 41.0914 28.1381 40.6087 28.2002C40.3762 28.2358 40.1706 28.3512 40.0276 28.5376C39.8846 28.724 39.822 28.9549 39.8577 29.1857C40.0902 30.8725 39.6343 32.5416 38.5794 33.891C38.4364 34.0774 38.3738 34.3083 38.4006 34.5391C38.4274 34.7699 38.5526 34.983 38.7403 35.125C38.8923 35.2493 39.08 35.3115 39.2856 35.3115C39.5627 35.3115 39.813 35.1872 39.9829 34.9741C41.3238 33.2429 41.9049 31.1122 41.601 28.9549Z" fill="#060F26"/>
<path d="M46.7854 28.4135C46.3474 27.9785 45.7663 27.7299 45.1405 27.7299C44.8813 27.7299 44.631 27.7743 44.3896 27.8542C43.9694 25.6169 42.852 23.6638 41.1624 22.1989C40.1523 21.32 38.9454 20.6098 37.5687 20.0948C38.1856 19.0828 38.5074 17.9286 38.5163 16.7479C38.5163 13.1612 35.5752 10.2314 31.9636 10.2314C31.9636 10.2314 31.9636 10.2314 31.9547 10.2314C30.2026 10.2314 28.5577 10.9062 27.324 12.1402C26.0814 13.3742 25.402 15.0078 25.3931 16.7479C25.3931 17.8931 25.697 19.0206 26.287 20.0238C26.0457 20.1037 25.8311 20.1747 25.6345 20.2547L22.0408 17.1562C21.7905 16.9432 21.4418 16.881 21.1379 17.0053C20.825 17.1207 20.6194 17.4048 20.5836 17.7333L20.1009 22.4386C18.009 23.6371 16.677 25.3595 16.0334 27.6944C15.6847 28.9728 15.506 28.9817 14.8444 29.0438C13.6376 29.1415 13.0476 29.6653 12.7705 30.0825C12.3592 30.6951 12.3056 31.4675 12.6006 32.3819L13.4409 34.9743C13.8611 36.2882 14.6656 36.5634 15.2646 36.5634H15.9887C17.8302 38.9161 19.5556 39.5287 21.7547 40.0791C21.6921 40.7982 21.5938 41.686 21.4597 42.7958H19.7522C19.2606 42.7958 18.8672 43.1864 18.8672 43.6747C18.8672 43.9055 18.9566 44.1275 19.1265 44.2961C19.2963 44.4648 19.5198 44.5536 19.7522 44.5536L27.4581 44.5625C27.9498 44.5625 28.3431 44.1718 28.3431 43.6836C28.3431 43.1953 27.9498 42.8046 27.4581 42.8046H27.3955L27.7442 41.6328C29.4159 41.8725 31.1233 41.757 33.2331 41.2599L33.242 41.3131C33.3314 42.0411 33.4208 42.8668 33.4029 43.6658C33.394 43.8966 33.4923 44.1363 33.6532 44.305C33.8231 44.4737 34.0466 44.5714 34.2879 44.5714L40.9926 44.5802C41.4843 44.5802 41.8776 44.1896 41.8776 43.7013C41.8776 43.4705 41.7882 43.2485 41.6183 43.0799C41.4485 42.9112 41.225 42.8224 40.9926 42.8224H39.6159C40.2953 40.2034 41.4843 37.7442 42.2709 36.7321C43.7817 34.7967 44.5773 32.4885 44.5773 30.0559C44.5773 29.7452 44.8276 29.4966 45.1316 29.4966C45.4355 29.4966 45.6858 29.7452 45.6858 30.0559C45.6858 30.2068 45.6233 30.3489 45.5249 30.4554C45.1852 30.8017 45.1852 31.3521 45.5249 31.6983C45.6948 31.867 45.9093 31.9558 46.1507 31.9558C46.3921 31.9558 46.6066 31.867 46.7765 31.6983C47.2145 31.2633 47.4559 30.6774 47.4559 30.0648C47.4648 29.4345 47.2234 28.8574 46.7854 28.4135ZM37.8012 42.8135H35.164C35.1372 42.2098 35.0657 41.6328 35.0031 41.109C34.9584 40.745 34.9226 40.3987 34.8958 40.088C34.8779 39.8217 34.7438 39.5908 34.5204 39.431C34.3058 39.2801 34.0287 39.2357 33.7784 39.2979C31.1323 40.0258 29.1924 40.159 27.3061 39.7595C26.8592 39.6618 26.4033 39.9282 26.2692 40.3721L25.554 42.7958H23.2387C23.4174 41.3487 23.5247 40.2567 23.5694 39.4488C23.5962 39.0226 23.3102 38.6498 22.899 38.5432C20.4138 37.9395 18.9119 37.5755 17.1419 35.1607C16.972 34.9388 16.7128 34.7967 16.4267 34.7967H15.2914C15.2556 34.7612 15.1841 34.6458 15.1216 34.4327L14.2812 31.8404C14.165 31.4764 14.1471 31.1834 14.2365 31.0502C14.3259 30.9171 14.612 30.8194 14.9875 30.7839C16.7217 30.6419 17.3117 29.7097 17.7408 28.1471C18.4649 25.4926 20.1456 24.374 21.3345 23.7614C21.6027 23.6283 21.7815 23.3619 21.8083 23.069L22.1659 19.5888L24.8746 21.9237C25.1249 22.1457 25.4914 22.1989 25.8043 22.0658C26.3139 21.8527 26.877 21.6574 27.4581 21.4887C27.9319 21.9326 28.4593 22.2966 29.0404 22.5807C28.8616 22.7849 28.7812 23.069 28.8437 23.3353C28.9331 23.7348 29.2907 24.0278 29.7019 24.0278C29.7735 24.0278 29.8271 24.0189 29.8897 24.01C31.2932 23.7082 32.7324 23.646 34.0555 23.8236C34.5382 23.8857 34.9852 23.5572 35.0567 23.069C35.0835 22.8825 35.0478 22.6872 34.9494 22.5185C35.459 22.2522 35.9417 21.9237 36.3708 21.5331C38.8203 22.3321 42.8162 24.4806 42.8162 30.0293C42.8162 32.0712 42.1458 34.0066 40.8764 35.6313C39.7321 37.1228 38.4537 40.1146 37.8012 42.8135ZM31.9547 21.7461C29.1834 21.7461 26.9217 19.5 26.9307 16.7479C26.9307 14.6438 28.2716 12.7528 30.2651 12.0425C30.8104 11.8472 31.3826 11.7496 31.9636 11.7496C34.7349 11.7496 36.9966 13.9957 36.9877 16.7479C36.9787 19.5089 34.726 21.7461 31.9547 21.7461Z" fill="#060F26"/>
<path d="M21.219 26.9932C20.7273 26.9932 20.334 27.3838 20.334 27.8721C20.334 28.1029 20.4234 28.3249 20.5932 28.4935C20.7631 28.6622 20.9866 28.751 21.219 28.751C21.7107 28.751 22.104 28.3604 22.104 27.8721C22.104 27.6413 22.0146 27.4193 21.8448 27.2506C21.6839 27.0819 21.4604 26.9932 21.219 26.9932Z" fill="#060F26"/>
<path d="M31.8927 15.3895C32.2414 15.3895 32.8224 15.5849 33.3141 15.8601L33.4124 15.9133L33.9488 14.7947L33.8684 14.7503C33.475 14.5017 32.9923 14.3242 32.4827 14.262V13.3032H31.41V14.2709C30.5607 14.4396 30.0512 14.9723 30.0512 15.7091C30.0512 16.739 30.9719 16.9876 31.6513 17.1651C32.0804 17.2805 32.4559 17.3782 32.4559 17.6179C32.4559 17.6978 32.4201 17.76 32.3486 17.8043C32.2682 17.8576 32.143 17.8842 31.9821 17.8842C31.5173 17.8842 30.8289 17.6002 30.3909 17.2184L30.2925 17.1385L29.7383 18.2482L29.8009 18.3015C30.23 18.6566 30.811 18.9052 31.41 19.0029V20.015H32.4827V19.0117C33.3856 18.8608 33.922 18.3193 33.922 17.5558C33.922 16.5082 32.9833 16.2418 32.3039 16.0465C31.8838 15.9222 31.5173 15.8246 31.5173 15.5937C31.5173 15.5316 31.5441 15.4783 31.5977 15.4428C31.6692 15.4073 31.7676 15.3895 31.8927 15.3895Z" fill="#060F26"/>
<path d="M45.8318 9.88136C45.5084 9.44423 44.9182 9.37274 44.5132 9.72218C44.1084 10.0715 44.0424 10.7093 44.3659 11.1466L45.3068 12.4188H39.3405C38.8223 12.4188 38.4023 12.8724 38.4023 13.4322C38.4023 13.9921 38.8223 14.4457 39.3405 14.4457H45.3068L44.3659 15.7179C44.0424 16.1552 44.1083 16.793 44.5132 17.1423C44.9207 17.4938 45.5106 17.4176 45.8318 16.9831L47.9902 14.0648C48.2639 13.6948 48.2639 13.1696 47.9902 12.7996L45.8318 9.88136Z" fill="#060F26"/>
<path d="M8.20567 45.0687C8.52816 45.5046 9.11822 45.5782 9.52427 45.2278C9.92907 44.8785 9.99512 44.2407 9.67163 43.8035L8.73069 42.5312H14.6968C15.2151 42.5312 15.635 42.0776 15.635 41.5178C15.635 40.9579 15.2151 40.5043 14.6968 40.5043H8.73056L9.67151 39.2321C9.995 38.7948 9.92907 38.157 9.52415 37.8077C9.11922 37.4583 8.52879 37.5295 8.20555 37.9669L6.04707 40.8852C5.77337 41.2552 5.77337 41.7805 6.04707 42.1504L8.20567 45.0687Z" fill="#060F26"/>
<path d="M6.02073 47.9936H21.8398C22.2594 47.9936 22.5993 47.6534 22.5993 47.2335C22.5993 46.8136 22.2594 46.4734 21.8398 46.4734H6.27875V44.6098C6.27875 44.3016 6.09283 44.024 5.80807 43.9068C5.52301 43.7893 5.19593 43.8561 4.97932 44.0752L0.219568 48.8903C-0.0731892 49.1864 -0.0731892 49.6632 0.219568 49.9594L4.97932 54.7744C5.19471 54.9924 5.5221 55.0607 5.80807 54.9428C6.09283 54.8257 6.27875 54.548 6.27875 54.2398V52.3763H14.0593H21.8398C22.2594 52.3763 22.5993 52.036 22.5993 51.6162C22.5993 51.1963 22.2594 50.8561 21.8398 50.8561H6.02073C5.32545 50.8561 4.75978 51.4222 4.75978 52.1179V52.3906L1.82786 49.4247L4.75978 46.4587V46.7314C4.75978 47.4275 5.32545 47.9936 6.02073 47.9936Z" fill="#060F26"/>
<path d="M53.7801 5.04072L49.0204 0.225721C48.8038 0.00661304 48.4766 -0.0602746 48.1916 0.0572855C47.9069 0.17444 47.721 0.452125 47.721 0.760315V2.62385H44.2184C43.7989 2.62385 43.4589 2.96406 43.4589 3.38393C43.4589 3.8038 43.7989 4.14402 44.2184 4.14402H47.9791C48.6743 4.14402 49.2399 3.57791 49.2399 2.88217V2.60945L52.1718 5.57541L49.2399 8.54127V8.26866C49.2399 7.57282 48.6743 7.00671 47.9791 7.00671H32.1599C31.7403 7.00671 31.4004 7.34692 31.4004 7.7668C31.4004 8.18667 31.7403 8.52688 32.1599 8.52688H47.721V10.3904C47.721 10.6986 47.9069 10.9762 48.1916 11.0934C48.4781 11.2115 48.8053 11.1426 49.0204 10.925L53.7801 6.11011C54.0729 5.81368 54.0729 5.33685 53.7801 5.04072Z" fill="#060F26"/>
<path d="M32.1599 4.1442H41.1818C41.6013 4.1442 41.9413 3.80398 41.9413 3.38411C41.9413 2.96424 41.6013 2.62402 41.1818 2.62402H32.1599C31.7403 2.62402 31.4004 2.96424 31.4004 3.38411C31.4004 3.80398 31.7404 4.1442 32.1599 4.1442Z" fill="#060F26"/>
</svg>
